# Blender v2.81 (sub 16) OBJ File: 'crystal.blend'
# www.blender.org
mtllib crystal.mtl
o Cylinder.001
v -2.656990 1.223915 -0.452116
v -2.656990 3.822251 -0.612117
v -2.767569 1.223915 -0.497919
v -2.654431 3.822251 -0.611057
v -2.813373 1.223915 -0.608499
v -2.653371 3.822251 -0.608499
v -2.767569 1.223915 -0.719079
v -2.654431 3.822251 -0.605940
v -2.656990 1.223915 -0.764882
v -2.656990 3.822251 -0.604881
v -2.546410 1.223915 -0.719079
v -2.659548 3.822251 -0.605940
v -2.500606 1.223915 -0.608499
v -2.660608 3.822251 -0.608499
v -2.546410 1.223915 -0.497919
v -2.659548 3.822251 -0.611057
v -2.655710 3.822251 -0.611587
v -2.653901 3.822251 -0.609778
v -2.653901 3.822251 -0.607220
v -2.655710 3.822251 -0.605411
v -2.658269 3.822251 -0.605411
v -2.660078 3.822251 -0.607220
v -2.660078 3.822251 -0.609778
v -2.658269 3.822251 -0.611587
v -2.413038 3.223915 -1.197451
v -2.656990 3.223915 -1.298499
v -2.068038 3.223915 -0.852451
v -2.169086 3.223915 -1.096403
v -2.068038 3.223915 -0.364547
v -1.966990 3.223915 -0.608499
v -2.413038 3.223915 -0.019547
v -2.169086 3.223915 -0.120595
v -2.900941 3.223915 -0.019547
v -2.656990 3.223915 0.081501
v -3.245941 3.223915 -0.364547
v -3.144893 3.223915 -0.120595
v -3.245941 3.223915 -0.852451
v -3.346990 3.223915 -0.608499
v -2.900941 3.223915 -1.197451
v -3.144893 3.223915 -1.096403
v -2.656990 1.094531 -0.315126
v -2.864436 1.094531 -0.401053
v -2.950363 1.094531 -0.608499
v -2.864436 1.094531 -0.815945
v -2.656990 1.094531 -0.901872
v -2.449543 1.094531 -0.815945
v -2.363616 1.094531 -0.608499
v -2.449543 1.094531 -0.401053
vt 0.875000 1.000000
vt 0.875000 0.500000
vt 0.937500 1.000000
vt 0.750000 1.000000
vt 0.750000 0.500000
vt 0.812500 1.000000
vt 0.625000 1.000000
vt 0.625000 0.500000
vt 0.687500 1.000000
vt 0.500000 1.000000
vt 0.500000 0.500000
vt 0.562500 1.000000
vt 0.375000 1.000000
vt 0.375000 0.500000
vt 0.437500 1.000000
vt 0.250000 1.000000
vt 0.250000 0.500000
vt 0.312500 1.000000
vt 0.250890 0.250890
vt 0.250445 0.251074
vt 0.250000 0.251258
vt 0.249555 0.251074
vt 0.249110 0.250890
vt 0.248926 0.250445
vt 0.248741 0.250000
vt 0.248926 0.249555
vt 0.249110 0.249110
vt 0.249555 0.248926
vt 0.250000 0.248741
vt 0.250445 0.248926
vt 0.250890 0.249110
vt 0.251074 0.249555
vt 0.251258 0.250000
vt 0.251074 0.250445
vt 0.125000 1.000000
vt 0.125000 0.500000
vt 0.187500 1.000000
vt 0.000000 1.000000
vt 0.000000 0.500000
vt 0.062500 1.000000
vt 0.500000 0.500000
vt 0.625000 0.500000
vt 1.000000 0.500000
vt 1.000000 1.000000
vt 0.334853 0.454853
vt 0.250000 0.490000
vt 0.454853 0.334853
vt 0.419706 0.419706
vt 0.454853 0.165147
vt 0.490000 0.250000
vt 0.334853 0.045147
vt 0.419706 0.080294
vt 0.165147 0.045147
vt 0.250000 0.010000
vt 0.045147 0.165147
vt 0.080294 0.080294
vt 0.045147 0.334853
vt 0.010000 0.250000
vt 0.165147 0.454853
vt 0.080294 0.419706
vt 0.750000 0.490000
vt 0.919706 0.419706
vt 0.990000 0.250000
vt 0.919706 0.080294
vt 0.750000 0.010000
vt 0.580294 0.080294
vt 0.510000 0.250000
vt 0.580294 0.419706
vt 0.125000 0.500000
vt 0.250000 0.500000
vt 0.750000 0.500000
vt 0.875000 0.500000
vt 0.375000 0.500000
vt 0.000000 0.500000
vt 1.000000 0.500000
vn 0.3564 -0.3641 -0.8605
vn 0.8605 -0.3641 -0.3564
vn 0.8605 -0.3641 0.3564
vn 0.3564 -0.3641 0.8605
vn -0.3564 -0.3641 0.8605
vn -0.8605 -0.3641 0.3564
vn 0.0000 1.0000 -0.0000
vn -0.8605 -0.3641 -0.3564
vn -0.3564 -0.3641 -0.8605
vn -0.2736 0.6993 -0.6604
vn 0.3564 0.3641 0.8605
vn 0.8605 0.3641 0.3564
vn 0.8605 0.3641 -0.3564
vn 0.3564 0.3641 -0.8605
vn -0.3564 0.3641 -0.8605
vn -0.8605 0.3641 -0.3564
vn -0.8605 0.3641 0.3564
vn -0.3564 0.3641 0.8605
vn 0.2626 0.7273 -0.6340
vn 0.6340 0.7273 -0.2626
vn 0.6340 0.7273 0.2626
vn 0.2626 0.7273 0.6340
vn -0.2626 0.7273 0.6340
vn -0.6340 0.7273 0.2626
vn -0.6340 0.7273 -0.2626
vn -0.2626 0.7273 -0.6340
vn 0.0000 -1.0000 0.0000
vn 0.6604 0.6993 0.2736
vn -0.6604 0.6993 0.2736
vn 0.2736 0.6993 -0.6604
vn 0.2736 0.6993 0.6604
vn -0.2736 0.6993 0.6604
vn -0.6604 0.6993 -0.2736
vn 0.6604 0.6993 -0.2736
usemtl None
s off
f 28/1/1 3/2/1 25/3/1
f 30/4/2 5/5/2 27/6/2
f 32/7/3 7/8/3 29/9/3
f 34/10/4 9/11/4 31/12/4
f 36/13/5 11/14/5 33/15/5
f 38/16/6 13/17/6 35/18/6
f 4/19/7 17/20/7 2/21/7 24/22/7 16/23/7 23/24/7 14/25/7 22/26/7 12/27/7 21/28/7 10/29/7 20/30/7 8/31/7 19/32/7 6/33/7 18/34/7
f 40/35/8 15/36/8 37/37/8
f 26/38/9 1/39/9 39/40/9
f 7/8/10 9/11/10 45/41/10 44/42/10
f 15/36/9 40/35/9 39/40/9
f 1/39/11 15/36/11 39/40/11
f 13/17/8 38/16/8 37/37/8
f 15/36/12 13/17/12 37/37/12
f 11/14/6 36/13/6 35/18/6
f 13/17/13 11/14/13 35/18/13
f 9/11/5 34/10/5 33/15/5
f 11/14/14 9/11/14 33/15/14
f 7/8/4 32/7/4 31/12/4
f 9/11/15 7/8/15 31/12/15
f 5/5/3 30/4/3 29/9/3
f 7/8/16 5/5/16 29/9/16
f 3/2/2 28/1/2 27/6/2
f 5/5/17 3/2/17 27/6/17
f 1/43/1 26/44/1 25/3/1
f 3/2/18 1/43/18 25/3/18
f 2/21/19 17/20/19 25/45/19 26/46/19
f 4/19/20 18/34/20 27/47/20 28/48/20
f 6/33/21 19/32/21 29/49/21 30/50/21
f 8/31/22 20/30/22 31/51/22 32/52/22
f 10/29/23 21/28/23 33/53/23 34/54/23
f 12/27/24 22/26/24 35/55/24 36/56/24
f 14/25/25 23/24/25 37/57/25 38/58/25
f 16/23/26 24/22/26 39/59/26 40/60/26
f 17/20/19 4/19/19 28/48/19 25/45/19
f 18/34/20 6/33/20 30/50/20 27/47/20
f 19/32/21 8/31/21 32/52/21 29/49/21
f 20/30/22 10/29/22 34/54/22 31/51/22
f 21/28/23 12/27/23 36/56/23 33/53/23
f 22/26/24 14/25/24 38/58/24 35/55/24
f 23/24/25 16/23/25 40/60/25 37/57/25
f 24/22/26 2/21/26 26/46/26 39/59/26
f 41/61/27 42/62/27 43/63/27 44/64/27 45/65/27 46/66/27 47/67/27 48/68/27
f 13/17/28 15/36/28 48/69/28 47/70/28
f 3/2/29 5/5/29 43/71/29 42/72/29
f 9/11/30 11/14/30 46/73/30 45/41/30
f 15/36/31 1/39/31 41/74/31 48/69/31
f 1/43/32 3/2/32 42/72/32 41/75/32
f 5/5/33 7/8/33 44/42/33 43/71/33
f 11/14/34 13/17/34 47/70/34 46/73/34
